<svg width="131" height="45" viewBox="0 0 131 45" fill="none" xmlns="http://www.w3.org/2000/svg">
<path d="M35.5053 13.8156C33.6981 21.1265 26.3281 27.2414 19.2603 28.053C18.5648 28.1359 17.8637 28.1634 17.1639 28.1351C16.28 28.1023 15.3929 28.1351 14.3151 28.1351C14.9559 26.4922 15.5637 24.8723 16.1913 23.2918C16.4903 22.5427 16.7893 21.8034 17.1015 21.0674C17.2066 20.8209 17.8802 20.7388 18.2942 20.7388C20.3388 20.7678 22.341 20.1541 24.0181 18.9841C25.3496 18.0106 26.4511 16.7565 27.2448 15.3106C27.5314 14.7994 27.7522 14.254 27.902 13.6874C28.0168 13.2781 28.1067 12.8623 28.1714 12.4421C28.4802 10.4509 27.0542 8.43012 25.0926 8.36769C21.051 8.23298 17.0029 8.32827 12.8431 8.32827C12.6919 9.25158 8.28479 35.3282 8.1205 36.3468L2.3125 28.6908C2.46693 27.8759 5.27349 9.68279 5.45329 8.785C5.93302 6.38964 6.46858 4.00744 6.90231 1.60551C7.00745 1.03707 7.2046 0.784056 7.63832 0.715054H8.40723C9.98442 0.715054 11.555 0.715054 13.1322 0.715054H13.7434C17.9065 0.715054 22.0696 0.678911 26.2295 0.757771C29.4857 0.823487 32.1439 2.23638 33.8361 4.44773C35.6926 6.83322 36.4023 10.2012 35.5053 13.8156Z" fill="white"/>
<path d="M3.1843 36.8789C3.6035 36.8631 4.02149 36.9332 4.41263 37.0848C4.80377 37.2364 5.15979 37.4663 5.45886 37.7605C5.75794 38.0546 5.99373 38.4068 6.1518 38.7954C6.30988 39.1839 6.38691 39.6007 6.3781 40.0201C6.37141 40.8414 6.05017 41.6289 5.48052 42.2205C4.91088 42.8122 4.13614 43.163 3.31571 43.2008C2.46832 43.1989 1.65359 42.8739 1.03754 42.2921C0.421489 41.7102 0.0504815 40.9153 0.000292494 40.0694C-0.00543577 39.6494 0.0730275 39.2325 0.230925 38.8432C0.388823 38.454 0.622977 38.1003 0.919694 37.8029C1.21641 37.5056 1.56962 37.2707 1.95854 37.112C2.34747 36.9533 2.76428 36.874 3.1843 36.8789Z" fill="white"/>
<path d="M29.5189 30.1378L27.8504 39.853H25.1893L26.8577 30.1378H29.5189ZM31.8843 32.9679C31.7153 32.8271 31.5393 32.7074 31.3563 32.6089C31.1873 32.5103 30.9832 32.461 30.7438 32.461C30.3777 32.4469 30.0539 32.5525 29.7723 32.7778C29.4907 32.989 29.2584 33.2636 29.0753 33.6015C28.9064 33.9394 28.7937 34.3055 28.7374 34.6997L28.1461 33.9183C28.2728 33.2565 28.5121 32.6229 28.8641 32.0175C29.2302 31.398 29.6597 30.8911 30.1525 30.4969C30.6593 30.1026 31.1944 29.9055 31.7576 29.9055C32.1096 29.9055 32.4193 29.9759 32.6869 30.1167C32.9685 30.2575 33.2149 30.4546 33.4261 30.7081L31.8843 32.9679ZM33.2404 34.9954C33.3812 34.0098 33.7332 33.1369 34.2964 32.3765C34.8596 31.6162 35.5636 31.0178 36.4084 30.5813C37.2673 30.1449 38.1966 29.9266 39.1963 29.9266C40.1959 29.9266 41.0548 30.1519 41.7729 30.6025C42.5051 31.053 43.0471 31.6655 43.3991 32.4399C43.7652 33.2002 43.8849 34.0521 43.7582 34.9954C43.6315 35.9669 43.2865 36.8329 42.7233 37.5932C42.1601 38.3535 41.4491 38.9519 40.5902 39.3884C39.7454 39.8249 38.8161 40.0431 37.8023 40.0431C36.8167 40.0431 35.9579 39.8249 35.2257 39.3884C34.5076 38.9378 33.9655 38.3324 33.5995 37.5721C33.2475 36.7977 33.1278 35.9388 33.2404 34.9954ZM35.986 34.9954C35.9156 35.4601 35.9508 35.9036 36.0916 36.326C36.2324 36.7484 36.4647 37.0863 36.7886 37.3397C37.1124 37.5932 37.5137 37.7269 37.9924 37.741C38.4993 37.741 38.9639 37.6213 39.3863 37.382C39.8228 37.1285 40.1819 36.7906 40.4635 36.3682C40.7591 35.9458 40.9422 35.4882 41.0126 34.9954C41.083 34.5026 41.0478 34.0521 40.907 33.6437C40.7662 33.2354 40.5339 32.8975 40.21 32.63C39.8862 32.3625 39.4779 32.2287 38.9851 32.2287C38.5063 32.2146 38.0487 32.3343 37.6123 32.5877C37.1758 32.8412 36.8167 33.1791 36.5351 33.6015C36.2535 34.0239 36.0705 34.4885 35.986 34.9954ZM46.7275 26.3785C46.7275 25.9279 46.8894 25.5618 47.2133 25.2802C47.5371 24.9845 47.9243 24.8367 48.3749 24.8367C48.8254 24.8367 49.2056 24.9845 49.5154 25.2802C49.8392 25.5618 50.0011 25.9279 50.0011 26.3785C50.0011 26.8149 49.8392 27.181 49.5154 27.4767C49.2056 27.7724 48.8254 27.9202 48.3749 27.9202C47.9243 27.9202 47.5371 27.7724 47.2133 27.4767C46.8894 27.181 46.7275 26.8149 46.7275 26.3785ZM42.4613 41.7327C42.5739 41.8735 42.7077 41.9932 42.8626 42.0917C43.0174 42.2044 43.1934 42.2607 43.3906 42.2607C43.6299 42.2748 43.8341 42.2044 44.003 42.0495C44.1861 41.8946 44.3269 41.6905 44.4254 41.437C44.5381 41.1977 44.6085 40.9442 44.6366 40.6767L46.453 30.1378H49.0718L47.171 41.3103C47.0584 41.958 46.8402 42.5423 46.5163 43.0633C46.2066 43.5983 45.7842 44.0137 45.2491 44.3093C44.7282 44.605 44.1086 44.7529 43.3906 44.7529C42.8555 44.7529 42.3979 44.6473 42.0178 44.4361C41.6376 44.2389 41.3138 44.0066 41.0462 43.7391L42.4613 41.7327ZM55.0237 40.0642C54.0944 40.0642 53.2848 39.8882 52.5949 39.5362C51.905 39.1842 51.3629 38.6773 50.9687 38.0156C50.5885 37.3538 50.3984 36.5583 50.3984 35.629C50.3984 34.8405 50.5392 34.1013 50.8208 33.4114C51.1165 32.7215 51.5248 32.1161 52.0458 31.5951C52.5808 31.0741 53.2074 30.6658 53.9255 30.3701C54.6436 30.0745 55.432 29.9266 56.2909 29.9266C57.2343 29.9266 58.0228 30.0956 58.6564 30.4335C59.304 30.7714 59.7968 31.2572 60.1348 31.8908C60.4727 32.5244 60.6416 33.2988 60.6416 34.214C60.6416 34.4393 60.6205 34.6857 60.5783 34.9532C60.536 35.2066 60.4797 35.4249 60.4093 35.6079H51.8346V33.9183H58.3184L57.6004 34.8898C57.6708 34.749 57.7341 34.5941 57.7904 34.4252C57.8468 34.2562 57.8749 34.0943 57.8749 33.9394C57.8749 33.5029 57.8045 33.1298 57.6637 32.8201C57.537 32.5103 57.3399 32.2709 57.0724 32.102C56.8189 31.933 56.481 31.8485 56.0586 31.8485C55.6362 31.8485 55.249 31.933 54.897 32.102C54.5591 32.2709 54.2634 32.5103 54.01 32.8201C53.7565 33.1157 53.5524 33.4748 53.3975 33.8972C53.2567 34.3196 53.1652 34.7842 53.1229 35.2911C53.0666 35.8261 53.1088 36.2978 53.2496 36.7061C53.3904 37.1145 53.6228 37.4313 53.9466 37.6565C54.2704 37.8677 54.6858 37.9733 55.1927 37.9733C55.7559 37.9733 56.2557 37.8466 56.6922 37.5932C57.1428 37.3397 57.5159 37.0018 57.8116 36.5794L60.1348 37.3186C59.6138 38.1775 58.9239 38.8533 58.065 39.3461C57.2061 39.8249 56.1924 40.0642 55.0237 40.0642ZM64.2967 23.3794H66.9367L64.1066 39.853H61.5089L64.2967 23.3794ZM69.1332 30.1378H72.4702L67.5915 34.2562L71.0974 39.853H68.0139L64.4657 34.0661L69.1332 30.1378ZM72.9681 30.1378H78.8184L78.4171 32.4399H72.5457L72.9681 30.1378ZM75.1224 26.7586H77.7624L75.4814 39.853H72.9048L75.1224 26.7586ZM89.0603 27.709L89.5249 25.069H95.9876L95.523 27.709H89.0603ZM88.0676 33.517L88.5111 31.0249H94.7627L94.3403 33.5381L88.0676 33.517ZM87.6241 25.069H90.5175L87.962 39.853H85.1108L87.6241 25.069ZM98.8801 36.0514C98.8238 36.3893 98.8167 36.7061 98.859 37.0018C98.9153 37.2975 99.0279 37.5439 99.1969 37.741C99.3799 37.9241 99.6615 38.0156 100.042 38.0156C100.422 38.0156 100.767 37.9381 101.077 37.7833C101.386 37.6284 101.647 37.4101 101.858 37.1285C102.069 36.8329 102.203 36.4949 102.259 36.1148L103.315 30.1378H106.019L104.329 39.853H101.626L101.858 38.438C101.52 38.9308 101.105 39.325 100.612 39.6207C100.119 39.9164 99.5348 40.0642 98.859 40.0642C98.0986 40.0642 97.4932 39.9023 97.0426 39.5785C96.6062 39.2405 96.3105 38.79 96.1556 38.2268C96.0007 37.6636 95.9726 37.037 96.0711 36.3471L97.1482 30.1378H99.8938L98.8801 36.0514ZM114.044 33.9394C114.086 33.5874 114.079 33.2636 114.023 32.9679C113.981 32.6722 113.868 32.4329 113.685 32.2498C113.502 32.0527 113.213 31.9541 112.819 31.9541C112.453 31.9541 112.108 32.0386 111.784 32.2076C111.474 32.3625 111.221 32.5877 111.024 32.8834C110.827 33.165 110.7 33.4959 110.644 33.8761L109.609 39.853H106.906L108.574 30.1378H111.277L111.066 31.5317C111.404 31.0249 111.819 30.6306 112.312 30.349C112.805 30.0674 113.382 29.9266 114.044 29.9266C114.818 29.9125 115.424 30.0745 115.86 30.4124C116.297 30.7503 116.593 31.2009 116.747 31.7641C116.916 32.3132 116.952 32.9397 116.853 33.6437L115.776 39.853H113.009L114.044 33.9394ZM128.279 23.3794H131.003L128.152 39.853H125.491L128.279 23.3794ZM118.542 34.9954C118.669 34.0239 118.986 33.158 119.493 32.3977C120.014 31.6373 120.654 31.0319 121.415 30.5813C122.189 30.1308 123.013 29.9125 123.886 29.9266C124.548 29.9266 125.104 30.0674 125.554 30.349C126.005 30.6306 126.364 31.0108 126.631 31.4895C126.899 31.9541 127.075 32.4892 127.159 33.0946C127.244 33.7001 127.244 34.3337 127.159 34.9954C127.075 35.6853 126.892 36.3401 126.61 36.9596C126.343 37.565 125.998 38.1001 125.575 38.5647C125.167 39.0293 124.688 39.3954 124.139 39.6629C123.59 39.9164 122.992 40.0431 122.344 40.0431C121.457 40.0431 120.711 39.8178 120.105 39.3673C119.5 38.9026 119.056 38.2901 118.775 37.5298C118.493 36.7554 118.416 35.9106 118.542 34.9954ZM121.33 34.9954C121.26 35.4741 121.288 35.9317 121.415 36.3682C121.556 36.7906 121.788 37.1285 122.112 37.382C122.436 37.6354 122.844 37.7692 123.337 37.7833C123.675 37.7833 124.006 37.7129 124.329 37.5721C124.653 37.4313 124.949 37.2341 125.216 36.9807C125.498 36.7132 125.73 36.4105 125.913 36.0725C126.11 35.7346 126.244 35.3756 126.315 34.9954C126.371 34.6153 126.364 34.2633 126.294 33.9394C126.237 33.6156 126.125 33.3269 125.956 33.0735C125.787 32.806 125.575 32.5948 125.322 32.4399C125.069 32.285 124.773 32.2005 124.435 32.1865C123.942 32.1724 123.47 32.2921 123.02 32.5455C122.583 32.7989 122.21 33.1439 121.901 33.5804C121.605 34.0028 121.415 34.4745 121.33 34.9954Z" fill="#ECEFEF"/>
</svg>
